<svg width="27" height="28" viewBox="0 0 27 28" fill="none" xmlns="http://www.w3.org/2000/svg">
<path d="M3.375 24.8H8.4375V16.8C8.4375 16.3467 8.5995 15.9669 8.9235 15.6608C9.2475 15.3547 9.648 15.2011 10.125 15.2H16.875C17.3531 15.2 17.7542 15.3536 18.0782 15.6608C18.4022 15.968 18.5636 16.3477 18.5625 16.8V24.8H23.625V10.4L13.5 3.2L3.375 10.4V24.8ZM0 24.8V10.4C0 9.89333 0.119812 9.41333 0.359437 8.96C0.599062 8.50667 0.92925 8.13333 1.35 7.84L11.475 0.64C12.0656 0.213333 12.7406 0 13.5 0C14.2594 0 14.9344 0.213333 15.525 0.64L25.65 7.84C26.0719 8.13333 26.4026 8.50667 26.6422 8.96C26.8819 9.41333 27.0011 9.89333 27 10.4V24.8C27 25.68 26.6692 26.4336 26.0077 27.0608C25.3462 27.688 24.552 28.0011 23.625 28H16.875C16.3969 28 15.9964 27.8464 15.6735 27.5392C15.3506 27.232 15.1886 26.8523 15.1875 26.4V18.4H11.8125V26.4C11.8125 26.8533 11.6505 27.2336 11.3265 27.5408C11.0025 27.848 10.602 28.0011 10.125 28H3.375C2.44687 28 1.65262 27.6869 0.992249 27.0608C0.331875 26.4347 0.001125 25.6811 0 24.8Z" fill="url(#paint0_linear_149_583)"/>
<defs>
<linearGradient id="paint0_linear_149_583" x1="13.5" y1="0" x2="13.5" y2="28" gradientUnits="userSpaceOnUse">
<stop stop-color="#AA0608"/>
<stop offset="1" stop-color="#310A3F"/>
</linearGradient>
</defs>
</svg>
